<svg xmlns="http://www.w3.org/2000/svg" width="15" height="15" viewBox="0 0 15 15" fill="none">
  <path d="M5.25 1.875H3.1875C2.46263 1.875 1.875 2.46263 1.875 3.1875V5.25C1.875 5.97487 2.46263 6.5625 3.1875 6.5625H5.25C5.97487 6.5625 6.5625 5.97487 6.5625 5.25V3.1875C6.5625 2.46263 5.97487 1.875 5.25 1.875Z" fill="#6B6B73"/>
  <path opacity="0.45" d="M11.8125 1.875H9.75C9.02513 1.875 8.4375 2.46263 8.4375 3.1875V5.25C8.4375 5.97487 9.02513 6.5625 9.75 6.5625H11.8125C12.5374 6.5625 13.125 5.97487 13.125 5.25V3.1875C13.125 2.46263 12.5374 1.875 11.8125 1.875Z" fill="#6B6B73"/>
  <path opacity="0.45" d="M5.25 8.4375H3.1875C2.46263 8.4375 1.875 9.02513 1.875 9.75V11.8125C1.875 12.5374 2.46263 13.125 3.1875 13.125H5.25C5.97487 13.125 6.5625 12.5374 6.5625 11.8125V9.75C6.5625 9.02513 5.97487 8.4375 5.25 8.4375Z" fill="#6B6B73"/>
  <path opacity="0.45" d="M11.8125 8.4375H9.75C9.02513 8.4375 8.4375 9.02513 8.4375 9.75V11.8125C8.4375 12.5374 9.02513 13.125 9.75 13.125H11.8125C12.5374 13.125 13.125 12.5374 13.125 11.8125V9.75C13.125 9.02513 12.5374 8.4375 11.8125 8.4375Z" fill="#6B6B73"/>
</svg>